<svg width="80" height="80" viewBox="0 0 80 80" fill="none" xmlns="http://www.w3.org/2000/svg">
<path d="M79.8899 18.1843C79.8462 18.0178 79.791 17.8545 79.7248 17.6956C79.6797 17.5922 79.6297 17.4888 79.5763 17.3904C79.523 17.2903 79.4629 17.1952 79.4012 17.1018C79.0939 16.6457 78.6836 16.2684 78.2034 16.0004C77.7232 15.7324 77.1866 15.5812 76.6371 15.5591C76.0876 15.5371 75.5406 15.6447 75.0405 15.8734C74.5403 16.1021 74.1011 16.4453 73.7583 16.8753C73.4154 17.3053 73.1787 17.81 73.0672 18.3485C72.9557 18.887 72.9726 19.4442 73.1166 19.975C73.2605 20.5058 73.5274 20.9952 73.8956 21.4036C74.2639 21.812 74.7231 22.128 75.2362 22.3259C74.6157 25.5135 71.0029 29.0379 67.43 31.0612C66.8793 31.3717 66.3021 31.633 65.7053 31.8418C66.4434 29.6483 66.8433 27.3553 66.8913 25.0414C67.6706 24.7671 68.3279 24.2261 68.747 23.5141C69.166 22.802 69.3198 21.9647 69.1813 21.1502C69.0427 20.3357 68.6207 19.5964 67.9897 19.063C67.3588 18.5296 66.5596 18.2363 65.7334 18.2352C64.9072 18.234 64.1072 18.5249 63.4747 19.0565C62.8423 19.5882 62.4181 20.3263 62.2772 21.1404C62.1363 21.9545 62.2878 22.7922 62.7048 23.5054C63.1218 24.2187 63.7775 24.7615 64.5561 25.0381C64.5067 27.5523 63.9879 30.0352 63.0266 32.3589C61.5204 35.9984 58.9884 39.0375 55.8309 40.7405L55.6407 40.8439C54.1062 41.6729 53.3172 42.0983 51.9261 42.2183C51.9862 41.6646 52.1046 41.0191 52.3081 40.0033C52.3665 39.7114 52.4849 39.201 52.625 38.6105C53.2271 36.0485 53.6241 34.1353 53.8343 32.6925C54.6054 32.4005 55.2489 31.8458 55.6512 31.1261C56.0536 30.4063 56.189 29.5677 56.0338 28.7579C55.8785 27.948 55.4425 27.219 54.8025 26.699C54.1625 26.1791 53.3596 25.9017 52.5351 25.9156C51.7107 25.9296 50.9176 26.234 50.2955 26.7752C49.6734 27.3165 49.2623 28.0599 49.1345 28.8745C49.0067 29.6891 49.1705 30.5227 49.5969 31.2284C50.0234 31.9341 50.6851 32.4668 51.4657 32.7325C51.1538 34.6557 50.5984 37.0209 50.3515 38.0751C50.2014 38.7122 50.083 39.216 50.0179 39.5446C49.8142 40.4658 49.6644 41.3981 49.5692 42.3368C47.8829 42.5403 46.5719 43.1341 45.5827 44.1332C43.7413 45.9947 43.4861 48.8202 43.4761 51.7242C43.4727 52.253 43.4777 52.7834 43.4844 53.3121C43.4894 53.7508 43.4928 54.1878 43.4928 54.6198V61.3652C43.4928 61.4137 43.4894 61.4622 43.4828 61.5103C43.4781 61.5582 43.4691 61.6057 43.4561 61.6521C43.3945 61.9113 43.2372 62.1377 43.0157 62.2859C43.014 62.2876 43.0107 62.2892 43.009 62.2909C43.0074 62.2909 43.0074 62.2926 43.0057 62.2926C42.9874 62.3042 42.9707 62.3159 42.9523 62.3276C42.9405 62.3349 42.9282 62.3416 42.9156 62.3476C42.8099 62.4106 42.6988 62.4642 42.5837 62.5077C42.5181 62.5324 42.4513 62.5535 42.3835 62.5711C42.3085 62.5928 42.2318 62.6095 42.1517 62.6245C42.0716 62.6412 41.9882 62.6529 41.9015 62.6629C41.8925 62.663 41.8836 62.6642 41.8748 62.6662C41.5867 62.6959 41.2971 62.7104 41.0075 62.7096V62.7079H41.0025V59.2635C41.0022 59.2223 41.0107 59.1815 41.0273 59.1438C41.0439 59.106 41.0682 59.0722 41.0988 59.0445C41.1293 59.0169 41.1653 58.9959 41.2045 58.983C41.2436 58.9702 41.285 58.9657 41.326 58.9699C41.5529 58.9916 41.8064 59.02 42.1 59.0517C42.1301 59.0552 42.1607 59.0528 42.1899 59.0444C42.2191 59.0361 42.2463 59.0221 42.27 59.0032C42.2938 58.9842 42.3135 58.9608 42.3281 58.9342C42.3427 58.9076 42.3519 58.8784 42.3552 58.8482L42.4403 58.0792L42.527 57.3086C42.5284 57.3009 42.5289 57.2931 42.5287 57.2853V57.2836C42.5284 57.2691 42.5273 57.2546 42.5253 57.2402C42.519 57.2131 42.5083 57.1872 42.4936 57.1635C42.4864 57.1516 42.478 57.1405 42.4686 57.1302C42.4599 57.1194 42.4498 57.1099 42.4386 57.1018C42.404 57.0759 42.3631 57.0597 42.3202 57.0551C41.2143 56.9417 40.5921 56.8816 40 56.88C39.4079 56.8816 38.7857 56.9417 37.6798 57.0551C37.6225 57.0601 37.5694 57.087 37.5314 57.1302C37.522 57.1404 37.5136 57.1516 37.5064 57.1635C37.4917 57.1872 37.481 57.2131 37.4747 57.2402C37.4727 57.2552 37.4716 57.2702 37.4713 57.2853C37.4711 57.2931 37.4717 57.3009 37.473 57.3086L37.5597 58.0792L37.6448 58.8482C37.648 58.8784 37.6572 58.9076 37.6719 58.9342C37.6865 58.9608 37.7062 58.9842 37.7299 59.0032C37.7537 59.0221 37.7809 59.0361 37.8101 59.0444C37.8393 59.0528 37.8699 59.0552 37.9 59.0517C38.1936 59.02 38.4471 58.9916 38.6739 58.9699C38.7149 58.9657 38.7564 58.9702 38.7955 58.983C38.8347 58.9959 38.8707 59.0169 38.9012 59.0445C38.9317 59.0722 38.9561 59.106 38.9727 59.1438C38.9893 59.1815 38.9977 59.2223 38.9975 59.2635V62.7079H38.9925V62.7096C38.7028 62.7104 38.4133 62.6959 38.1252 62.6662C38.1162 62.6659 38.1073 62.6648 38.0985 62.6629C38.0118 62.6529 37.9284 62.6412 37.8483 62.6245C37.7682 62.6095 37.6915 62.5928 37.6164 62.5711C37.5487 62.5535 37.4818 62.5324 37.4163 62.5077C37.3009 62.4649 37.1897 62.4113 37.0844 62.3476C37.0718 62.3416 37.0595 62.3349 37.0477 62.3276C37.0293 62.3159 37.0126 62.3042 36.9943 62.2926C36.9909 62.2909 36.9876 62.2876 36.9843 62.2859C36.7628 62.1377 36.6055 61.9113 36.5439 61.6521C36.5309 61.6057 36.5219 61.5582 36.5172 61.5103C36.5105 61.4616 36.5072 61.4126 36.5072 61.3635V54.6198C36.5072 54.1878 36.5106 53.7508 36.5156 53.3121C36.5222 52.7834 36.5272 52.253 36.5239 51.7242C36.5139 48.8202 36.2587 45.9947 34.4172 44.1332C33.4281 43.1341 32.1171 42.5403 30.4308 42.3368C30.3356 41.3981 30.1858 40.4658 29.9821 39.5446C29.917 39.216 29.7986 38.7139 29.6485 38.0767C29.4016 37.0226 28.8462 34.6557 28.5343 32.7325C29.3152 32.4668 29.9774 31.934 30.4041 31.228C30.8308 30.522 30.9947 29.688 30.8669 28.8731C30.7391 28.0581 30.3278 27.3144 29.7055 26.7728C29.0832 26.2313 28.2897 25.9268 27.4649 25.9128C26.6401 25.8989 25.8368 26.1765 25.1965 26.6966C24.5563 27.2168 24.1201 27.9462 23.9648 28.7564C23.8096 29.5666 23.9452 30.4056 24.3478 31.1256C24.7504 31.8456 25.3942 32.4005 26.1657 32.6925C26.3759 34.1353 26.7729 36.0485 27.375 38.6105C27.5151 39.2026 27.6335 39.7114 27.6919 40.0033C27.8954 41.0191 28.0138 41.6646 28.0739 42.2183C26.6828 42.0983 25.8938 41.6729 24.3593 40.8439L24.1691 40.7405C21.0116 39.0375 18.4796 35.9984 16.9734 32.3589C16.012 30.0352 15.4933 27.5523 15.4439 25.0381C16.2226 24.7615 16.8785 24.2186 17.2956 23.5052C17.7127 22.7919 17.8642 21.954 17.7233 21.1397C17.5825 20.3255 17.1582 19.5872 16.5257 19.0555C15.8931 18.5238 15.0929 18.2328 14.2666 18.234C13.4402 18.2351 12.6409 18.5284 12.0098 19.062C11.3788 19.5955 10.9567 20.3349 10.8181 21.1496C10.6796 21.9643 10.8335 22.8017 11.2526 23.5139C11.6718 24.226 12.3292 24.7671 13.1087 25.0414C13.1567 27.3553 13.5566 29.6483 14.2946 31.8418C13.6978 31.633 13.1207 31.3717 12.5699 31.0612C8.99712 29.0379 5.38426 25.5135 4.76376 22.3259C5.27699 22.1281 5.73641 21.8122 6.10481 21.4037C6.4732 20.9953 6.74022 20.5058 6.88423 19.9749C7.02823 19.4441 7.04519 18.8868 6.93371 18.3481C6.82223 17.8095 6.58546 17.3047 6.24258 16.8746C5.89969 16.4445 5.46032 16.1012 4.96007 15.8726C4.45981 15.6439 3.91273 15.5363 3.36313 15.5584C2.81354 15.5805 2.27687 15.7318 1.79662 15.9999C1.31636 16.2681 0.906009 16.6455 0.598801 17.1018C0.537085 17.1952 0.477037 17.2903 0.423661 17.3904C0.370286 17.4888 0.320246 17.5922 0.275211 17.6956C0.208992 17.8545 0.153816 18.0178 0.110079 18.1843C-0.111044 19.0458 0.00354474 19.9591 0.43063 20.7393C0.857715 21.5194 1.56537 22.1081 2.41023 22.386C3.02405 26.5776 7.36416 30.796 11.419 33.0928C11.8032 33.3102 12.1985 33.5073 12.6033 33.6833C12.9286 33.8267 13.2605 33.9551 13.5974 34.0719C13.8259 34.1503 14.0561 34.2237 14.2896 34.2887C14.6566 34.3938 15.0302 34.4839 15.4055 34.5573H15.4072C15.4506 34.649 15.4973 34.7391 15.5423 34.8308C15.5873 34.9209 15.634 35.0093 15.6807 35.0994C17.4655 38.4937 20.0175 41.1542 23.0616 42.7971L23.2501 42.8989C24.9598 43.823 26.0756 44.4251 28.0922 44.5619C28.0872 44.662 28.0822 44.7687 28.0772 44.8788C28.0622 45.2207 28.0455 45.6027 28.0289 46.0397C27.9705 47.5025 27.9104 49.5909 27.9104 52.8868V54.031C27.9104 56.3379 30.1906 57.8824 32.0237 59.1251C32.5825 59.5037 33.1112 59.8623 33.5215 60.1992C33.6281 60.5391 33.7145 60.885 33.7801 61.2351C33.8514 61.6089 33.9427 61.9786 34.0536 62.3426C34.1347 62.6174 34.269 62.8736 34.4489 63.0965C34.5974 63.2717 34.7458 63.4301 34.8943 63.5753C34.9427 63.6236 34.9927 63.6703 35.0411 63.7154C35.3117 63.9675 35.6092 64.189 35.9284 64.3759C36.0102 64.4243 36.0919 64.4676 36.1753 64.5093C36.2892 64.5672 36.4062 64.619 36.5256 64.6644C36.5656 64.6811 36.6056 64.6961 36.6457 64.7095C36.9246 64.8095 37.2122 64.8838 37.5047 64.9313C37.5414 64.938 37.5781 64.9447 37.6148 64.9497C37.6681 64.958 37.7199 64.9664 37.7732 64.9714C37.8733 64.9847 37.9734 64.9947 38.0751 65.0047C38.2086 65.0164 38.3437 65.0247 38.4788 65.0297C38.5155 65.0314 38.5522 65.0331 38.5872 65.0347C38.8574 65.0448 39.1343 65.0464 39.4195 65.0464H39.6914L39.9116 65.0447H40.0884L40.3086 65.0464C40.6905 65.0464 41.0575 65.0481 41.4128 65.0347C41.4478 65.0331 41.4845 65.0314 41.5212 65.0297C41.658 65.0247 41.7931 65.0147 41.9249 65.0047C42.0266 64.9947 42.1267 64.9847 42.2268 64.9714C42.2801 64.9647 42.3335 64.958 42.3852 64.9497C42.4219 64.9447 42.4586 64.938 42.4953 64.9313C42.7878 64.8838 43.0754 64.8095 43.3543 64.7095C43.3943 64.6961 43.4344 64.6811 43.4744 64.6644C43.5937 64.6187 43.7106 64.5669 43.8247 64.5093C43.9081 64.4676 43.9898 64.4243 44.0716 64.3759C44.3907 64.189 44.6883 63.9675 44.9589 63.7154C45.0073 63.6703 45.0573 63.6236 45.1057 63.5753C45.2558 63.4301 45.4026 63.2717 45.5511 63.0965C45.731 62.8736 45.8653 62.6174 45.9464 62.3426C46.0573 61.9786 46.1486 61.6089 46.2199 61.2351C46.2855 60.885 46.3719 60.5391 46.4785 60.1992C46.8888 59.8623 47.4175 59.5037 47.9763 59.1251C49.8094 57.8824 52.0896 56.3379 52.0896 54.031V52.8868C52.0896 49.5909 52.0295 47.5025 51.9711 46.0397C51.9545 45.6027 51.9378 45.2207 51.9228 44.8788C51.9178 44.7687 51.9128 44.662 51.9078 44.5619C53.9243 44.4251 55.0402 43.823 56.7516 42.8989L56.9384 42.7971C59.9825 41.1542 62.5345 38.4937 64.3192 35.0994C64.3659 35.0093 64.4127 34.9209 64.4577 34.8308C64.5027 34.7391 64.5494 34.649 64.5928 34.5573H64.5945C64.9698 34.4839 65.3417 34.3955 65.7104 34.2887C65.9439 34.2237 66.174 34.1503 66.4026 34.0719C66.7395 33.9551 67.0714 33.8267 67.3967 33.6833C67.8012 33.5066 68.1964 33.3095 68.581 33.0928C72.6358 30.796 76.9759 26.5776 77.5898 22.386C78.4346 22.1081 79.1423 21.5194 79.5694 20.7393C79.9965 19.9591 80.1111 19.0458 79.8899 18.1843ZM3.50277 20.2259C3.27184 20.2259 3.0461 20.1575 2.85409 20.0292C2.66208 19.9009 2.51242 19.7185 2.42405 19.5052C2.33568 19.2918 2.31256 19.0571 2.35761 18.8306C2.40266 18.6041 2.51386 18.396 2.67715 18.2327C2.84044 18.0694 3.04849 17.9582 3.27498 17.9132C3.50147 17.8681 3.73623 17.8913 3.94958 17.9796C4.16293 18.068 4.34529 18.2177 4.47358 18.4097C4.60188 18.6017 4.67036 18.8274 4.67036 19.0583C4.67002 19.3679 4.54689 19.6647 4.328 19.8836C4.10911 20.1025 3.81233 20.2256 3.50277 20.2259ZM14.2713 22.9047C14.0404 22.9047 13.8146 22.8362 13.6226 22.708C13.4306 22.5797 13.2809 22.3973 13.1926 22.184C13.1042 21.9706 13.0811 21.7358 13.1261 21.5093C13.1712 21.2829 13.2824 21.0748 13.4457 20.9115C13.609 20.7482 13.817 20.637 14.0435 20.592C14.27 20.5469 14.5048 20.57 14.7181 20.6584C14.9315 20.7468 15.1138 20.8964 15.2421 21.0885C15.3704 21.2805 15.4389 21.5062 15.4389 21.7371C15.4385 22.0467 15.3154 22.3435 15.0965 22.5624C14.8776 22.7813 14.5809 22.9044 14.2713 22.9047ZM27.405 30.5858C27.0955 30.5855 26.7987 30.4623 26.5798 30.2435C26.3609 30.0246 26.2378 29.7278 26.2374 29.4182C26.2387 29.1089 26.3621 28.8127 26.5808 28.594C26.7995 28.3753 27.0957 28.2519 27.405 28.2506C27.7147 28.2506 28.0117 28.3736 28.2306 28.5926C28.4496 28.8116 28.5726 29.1085 28.5726 29.4182C28.5726 29.7279 28.4496 30.0249 28.2306 30.2438C28.0117 30.4628 27.7147 30.5858 27.405 30.5858ZM31.2447 44.8888C31.8144 45.0554 32.3341 45.3602 32.7576 45.7762C33.3264 46.35 33.6733 47.1523 33.8818 48.0863C33.9202 48.2565 33.9535 48.4299 33.9836 48.6084C34.0286 48.8753 34.0636 49.1505 34.092 49.4341H34.0903C33.2537 49.4115 32.4589 49.0631 31.8752 48.4633C31.7684 48.3545 31.6697 48.238 31.58 48.1147C31.5199 48.033 31.4632 47.9479 31.4115 47.8611C31.3848 47.8161 31.3598 47.7727 31.3365 47.7277C31.2881 47.6376 31.2447 47.5442 31.2047 47.4492C31.0363 47.0422 30.953 46.6052 30.9599 46.1648C30.9668 45.7245 31.0637 45.2903 31.2447 44.8888ZM34.1821 53.2871C34.1771 53.7341 34.172 54.1795 34.172 54.6198V57.7673C33.9035 57.5772 33.6233 57.387 33.3347 57.1919C31.9586 56.2595 30.2456 55.0985 30.2456 54.031V52.8868C30.2456 51.9594 30.2506 51.1271 30.2589 50.3815C30.3223 50.4415 30.3891 50.5016 30.4558 50.5583C30.5892 50.6717 30.7277 50.7801 30.8711 50.8835C31.0151 50.9867 31.1643 51.0825 31.3181 51.1704C31.4699 51.2588 31.6284 51.3406 31.7902 51.4156C32.5393 51.762 33.355 51.9407 34.1804 51.9394H34.1921C34.1921 52.3864 34.1871 52.8384 34.1821 53.2871ZM46.0164 48.6084C46.0464 48.4299 46.0798 48.2565 46.1182 48.0863C46.3267 47.1523 46.6736 46.3516 47.2424 45.7762C47.6659 45.3602 48.1856 45.0554 48.7553 44.8888C48.9363 45.2903 49.0332 45.7245 49.0401 46.1648C49.047 46.6052 48.9637 47.0422 48.7953 47.4492C48.7553 47.5442 48.7119 47.6376 48.6635 47.7277C48.6402 47.7727 48.6151 47.8161 48.5885 47.8611C48.5368 47.9479 48.48 48.033 48.42 48.1147C48.3303 48.238 48.2316 48.3545 48.1248 48.4633C47.5415 49.0637 46.7465 49.4121 45.9097 49.4341H45.908C45.9364 49.1505 45.9714 48.8753 46.0164 48.6084ZM49.7544 54.031C49.7544 55.0985 48.0414 56.2595 46.6653 57.1919C46.3767 57.387 46.0965 57.5772 45.8279 57.7673V54.6198C45.8279 54.1795 45.8229 53.7341 45.8179 53.2871C45.8129 52.8384 45.8079 52.3864 45.8079 51.9394H45.8196C46.6449 51.9399 47.4604 51.7612 48.2098 51.4156C48.3716 51.3406 48.5301 51.2588 48.6819 51.1704C48.8353 51.0804 48.9854 50.9853 49.1289 50.8835C49.2006 50.8318 49.2723 50.7785 49.3424 50.7251C49.4808 50.615 49.6143 50.5016 49.741 50.3815C49.7494 51.1287 49.7544 51.9594 49.7544 52.8868V54.031ZM51.6325 30.0787C51.4599 29.8282 51.392 29.5201 51.4433 29.2202C51.4946 28.9203 51.6611 28.6523 51.9073 28.4734C52.1534 28.2945 52.4597 28.2189 52.7608 28.2626C53.0619 28.3064 53.334 28.4661 53.519 28.7077C53.6773 28.9106 53.7631 29.1608 53.7626 29.4182C53.7626 29.6675 53.6829 29.9102 53.535 30.1108C53.3872 30.3115 53.179 30.4596 52.941 30.5334C52.7029 30.6072 52.4475 30.6029 52.212 30.5211C51.9766 30.4393 51.7735 30.2843 51.6325 30.0787ZM64.5611 21.7371C64.5611 21.5062 64.6296 21.2805 64.7579 21.0885C64.8862 20.8964 65.0685 20.7468 65.2819 20.6584C65.4952 20.57 65.73 20.5469 65.9565 20.592C66.183 20.637 66.391 20.7482 66.5543 20.9115C66.7176 21.0748 66.8288 21.2829 66.8738 21.5093C66.9189 21.7358 66.8958 21.9706 66.8074 22.184C66.719 22.3973 66.5694 22.5797 66.3774 22.708C66.1854 22.8362 65.9596 22.9047 65.7287 22.9047C65.4191 22.9044 65.1223 22.7813 64.9035 22.5624C64.6846 22.3435 64.5614 22.0467 64.5611 21.7371ZM76.4972 20.2259C76.2663 20.2259 76.0406 20.1575 75.8485 20.0292C75.6565 19.9009 75.5069 19.7185 75.4185 19.5052C75.3301 19.2918 75.307 19.0571 75.3521 18.8306C75.3971 18.6041 75.5083 18.396 75.6716 18.2327C75.8349 18.0694 76.0429 17.9582 76.2694 17.9132C76.4959 17.8681 76.7307 17.8913 76.944 17.9796C77.1574 18.068 77.3397 18.2177 77.468 18.4097C77.5963 18.6017 77.6648 18.8274 77.6648 19.0583C77.6645 19.3679 77.5413 19.6647 77.3225 19.8836C77.1036 20.1025 76.8068 20.2256 76.4972 20.2259Z" fill="#F0A0C8"/>
<path d="M49.5169 38.7699C49.4585 39.0251 49.4118 39.2402 49.3768 39.412C49.3418 39.5888 49.3084 39.7556 49.2784 39.9141C49.265 39.9792 49.2517 40.0442 49.24 40.1059C49.1716 40.4679 49.1166 40.7815 49.0699 41.0633C43.3237 40.0092 37.3806 40.0242 30.9622 41.1034C30.9155 40.8115 30.8571 40.4862 30.7854 40.1059C30.7754 40.0559 30.7654 40.0058 30.7554 39.9541C30.7237 39.784 30.687 39.6055 30.6486 39.4137C30.6169 39.2502 30.5702 39.0451 30.5185 38.8099C37.2405 37.6724 43.4755 37.6607 49.5169 38.7699Z" fill="#F0A0C8"/>
</svg>
